<svg width="541" height="508" viewBox="0 0 541 508" fill="none" xmlns="http://www.w3.org/2000/svg">
<path fill-rule="evenodd" clip-rule="evenodd" d="M290.968 0.973952C268.951 3.10295 244.184 13.251 227.954 26.793C216.213 36.59 204.945 49.8369 199.655 60.0639L197.761 63.724L192.986 62.2509C185.366 59.9019 171.379 59.4579 162.71 61.2909C145.191 64.9939 127.039 78.0809 117.883 93.6109C110.834 105.566 106.986 122.397 108.129 136.274C108.729 143.566 108.646 144.09 106.993 143.412C106.013 143.009 100.034 142.448 93.7088 142.165C80.8388 141.589 70.9488 143.445 57.6348 148.935C33.5818 158.854 11.9418 183.713 4.28277 210.223C-12.2772 267.541 20.6648 326.588 77.5908 341.627C86.6158 344.011 89.2788 344.212 120.71 344.882C139.135 345.275 221.035 345.301 302.71 344.939L451.21 344.28L460.916 341.661C491.406 333.432 517.116 312.521 529.665 285.742C547.817 247.007 542.329 205.322 514.822 172.982C507.859 164.796 496.646 156.395 485.348 150.897C464.227 140.621 445.252 139.407 424.346 146.994C410.428 152.045 398.995 159.979 390.088 170.768C381.772 180.84 377.104 190.249 374.393 202.404L373.054 208.404L359.395 208.682L345.735 208.96L346.326 202.682C347.788 187.16 352.566 173.895 361.676 160.065C374.641 140.381 392.23 127.08 414.125 120.402L422.991 117.697L422.391 110.051C421.052 92.966 413.571 72.0019 403.19 56.2429C395.514 44.5919 377.831 26.844 366.71 19.63C356.762 13.176 342.085 6.68494 331.074 3.86894C324.552 2.20094 303.633 -0.388066 300.21 0.048934C299.66 0.118934 295.501 0.534952 290.968 0.973952ZM246.348 484.995C226.033 487.491 210.443 491.83 209.086 495.366C208.253 497.538 210.469 499.9 215.384 502.079C233.352 510.046 309.966 509.426 326.51 501.179C342.447 493.236 317.402 485.114 274.71 484.381C263.435 484.188 250.672 484.464 246.348 484.995Z" fill="#3B82F6"/>
</svg>
